<?xml version="1.0" standalone="no"?>
<!DOCTYPE svg PUBLIC "-//W3C//DTD SVG 20010904//EN"
 "http://www.w3.org/TR/2001/REC-SVG-20010904/DTD/svg10.dtd">
<svg version="1.0" xmlns="http://www.w3.org/2000/svg"
 width="1200.000000pt" height="1200.000000pt" viewBox="0 0 1200.000000 1200.000000"
 preserveAspectRatio="xMidYMid meet">
<metadata>
Created by potrace 1.11, written by Peter Selinger 2001-2013
</metadata>
<g transform="translate(0.000000,1200.000000) scale(0.100000,-0.100000)"
fill="#000000" stroke="none">
<path d="M5455 10629 c-99 -12 -169 -55 -236 -144 -31 -42 -45 -53 -58 -47
-13 7 -68 7 -156 2 -5 0 -28 1 -50 3 -23 3 -43 0 -47 -7 -4 -6 -8 -7 -8 -1 0
11 -89 13 -106 2 -6 -3 -14 -3 -18 0 -11 11 -60 12 -73 1 -7 -6 -13 -7 -13 -2
0 13 -94 12 -102 0 -5 -7 -8 -7 -8 -1 0 8 -84 10 -210 5 -8 0 -33 1 -55 3 -23
3 -43 0 -47 -7 -4 -6 -8 -7 -8 -1 0 11 -89 13 -106 2 -6 -3 -14 -3 -18 0 -11
11 -60 12 -73 1 -7 -6 -13 -7 -13 -2 0 5 -23 9 -50 10 -29 0 -50 -4 -50 -10 0
-7 -3 -7 -8 -1 -9 13 -135 14 -144 1 -5 -7 -8 -7 -8 -1 0 10 -80 15 -80 5 0
-3 -24 -5 -53 -6 -28 0 -86 -3 -127 -7 -70 -6 -93 -10 -160 -23 -14 -3 -36 -7
-50 -9 -37 -5 -192 -45 -215 -54 -11 -5 -49 -21 -85 -35 -140 -57 -248 -134
-300 -214 -17 -26 -30 -50 -30 -54 -1 -4 -7 -25 -14 -45 -10 -28 -13 -105 -11
-303 2 -294 3 -298 75 -392 34 -44 138 -128 159 -128 6 0 11 -4 11 -10 0 -5 9
-10 20 -10 11 0 20 -4 20 -9 0 -5 8 -11 18 -14 9 -3 60 -21 114 -41 53 -19
107 -37 120 -39 12 -2 30 -7 38 -10 19 -7 112 -26 165 -32 22 -3 47 -7 55 -10
47 -14 241 -18 930 -20 421 -2 767 -3 770 -4 10 -2 5 -111 -5 -111 -7 0 -7 -3
0 -8 12 -9 14 -112 2 -112 -4 0 -5 -5 -1 -12 11 -18 11 -108 -1 -108 -6 0 -7
-3 0 -8 12 -9 14 -112 2 -112 -4 0 -5 -5 -1 -12 11 -18 11 -108 -1 -108 -6 0
-7 -3 0 -8 12 -9 14 -112 2 -112 -4 0 -5 -5 -1 -12 11 -18 11 -108 -1 -108 -6
0 -7 -3 0 -8 12 -9 14 -112 2 -112 -4 0 -5 -5 -1 -12 12 -19 12 -63 0 -74 -7
-5 -434 -9 -1096 -9 -910 -1 -1091 -3 -1125 -15 -22 -8 -46 -15 -53 -16 -53
-9 -236 -134 -265 -180 -4 -7 -13 -19 -20 -26 -27 -28 -91 -142 -102 -183 -10
-35 -10 -35 -18 -55 -3 -8 -8 -37 -11 -65 -4 -27 -8 -70 -11 -95 -3 -25 -7
-59 -8 -75 -2 -17 -6 -36 -10 -42 -4 -6 -3 -15 3 -18 7 -4 8 -11 1 -18 -5 -7
-12 -37 -14 -67 -3 -30 -11 -91 -17 -135 -7 -44 -13 -93 -15 -110 -4 -51 -17
-149 -22 -170 -5 -22 -8 -44 -17 -120 -10 -74 -17 -126 -23 -165 -3 -19 -7
-46 -8 -60 -2 -14 -4 -27 -5 -30 -1 -3 -2 -8 -1 -12 0 -4 -4 -31 -9 -60 -5
-29 -12 -78 -16 -108 -4 -30 -9 -66 -11 -80 -9 -57 -11 -68 -17 -115 -4 -28
-9 -70 -13 -95 -3 -25 -7 -58 -9 -75 -1 -16 -3 -31 -4 -32 -4 -5 -6 -16 -15
-88 -5 -38 -9 -72 -10 -75 -2 -8 -16 -102 -19 -130 -2 -14 -6 -43 -10 -65 -7
-46 -15 -104 -21 -155 -3 -19 -7 -46 -10 -60 -9 -46 -17 -95 -20 -125 -4 -39
-14 -114 -19 -140 -3 -18 -8 -53 -22 -160 -3 -22 -7 -58 -9 -80 -2 -22 -9 -67
-14 -100 -6 -33 -13 -82 -16 -110 -4 -27 -8 -57 -10 -65 -3 -8 -7 -40 -11 -70
-3 -30 -8 -66 -9 -80 -2 -14 -6 -48 -9 -76 -3 -29 -8 -66 -11 -83 -3 -17 -7
-44 -10 -61 -3 -16 -7 -57 -10 -90 -2 -33 -6 -64 -9 -68 -3 -5 -6 -30 -7 -58
-1 -27 -4 -53 -7 -58 -3 -5 -7 -28 -8 -50 -2 -23 -5 -59 -8 -81 -14 -110 -19
-162 -20 -188 -1 -15 -3 -27 -6 -27 -3 0 -5 -20 -4 -45 0 -25 -2 -45 -5 -45
-3 0 -7 -21 -7 -48 -1 -26 -4 -67 -8 -92 -8 -60 -18 -161 -17 -183 0 -9 -4
-15 -8 -13 -4 3 -8 -1 -8 -9 0 -8 3 -12 7 -10 4 2 7 -9 6 -25 -1 -25 -4 -29
-28 -26 -15 2 -25 -1 -22 -6 3 -5 13 -7 21 -6 9 2 18 -2 20 -9 3 -7 -4 -10
-19 -7 l-23 5 24 -11 c20 -9 22 -12 10 -27 -8 -9 -9 -14 -4 -11 6 4 10 -11 10
-37 0 -27 -3 -41 -10 -37 -6 4 -6 1 1 -9 17 -24 11 -44 -14 -43 -13 1 -20 -1
-17 -5 6 -6 10 -7 38 -10 8 -1 7 -4 -3 -11 -10 -6 -11 -10 -2 -10 6 0 12 -5
12 -11 0 -5 -4 -7 -10 -4 -7 4 -7 -2 0 -19 6 -16 6 -27 0 -31 -9 -6 -13 0 -12
16 1 3 -6 6 -15 6 -12 0 -9 -7 10 -23 26 -22 37 -42 18 -29 -6 3 -7 -6 -3 -22
12 -47 8 -88 -8 -85 -11 2 -10 -2 3 -12 14 -10 15 -15 5 -19 -10 -4 -10 -6 0
-6 6 -1 12 -6 12 -12 0 -5 -4 -7 -10 -4 -7 4 -7 -3 0 -19 9 -25 6 -30 -15 -27
-5 1 -2 -5 8 -12 18 -15 24 -33 8 -22 -6 3 -7 -6 -3 -22 6 -24 8 -56 3 -87 0
-6 -8 -1 -16 10 -8 10 -15 14 -15 7 0 -6 8 -18 18 -25 10 -7 18 -26 19 -43 0
-16 3 -45 6 -63 2 -18 1 -35 -4 -38 -5 -3 -9 -11 -9 -17 0 -8 3 -8 9 1 7 11 9
11 14 -2 4 -9 1 -16 -6 -16 -9 0 -9 -2 -1 -8 13 -8 29 -69 25 -91 -1 -8 2 -10
10 -5 9 5 11 1 7 -14 -4 -12 -2 -20 3 -16 5 3 9 -4 9 -15 0 -12 4 -21 8 -21
12 0 33 -50 26 -61 -3 -5 -11 -6 -17 -3 -7 4 -8 3 -4 -1 10 -12 38 -15 31 -4
-3 5 0 9 5 9 6 0 11 -7 11 -15 0 -8 4 -15 10 -15 5 0 12 -11 16 -25 3 -14 10
-22 15 -19 5 3 9 -1 9 -8 0 -7 14 -24 30 -37 16 -13 27 -28 23 -34 -3 -6 -1
-7 5 -3 6 3 15 -2 21 -11 6 -10 11 -14 11 -10 0 4 15 -3 32 -17 47 -35 152
-86 177 -86 22 0 24 -20 6 -50 -8 -13 -6 -13 8 -2 9 8 15 19 14 25 -1 7 5 11
13 9 8 -2 41 -4 72 -5 32 -1 58 -5 58 -9 0 -5 5 -8 11 -8 5 0 7 5 4 10 -3 6 0
10 8 10 24 0 28 -13 10 -34 -18 -21 -18 -21 4 -2 13 10 20 23 17 27 -3 5 2 9
11 9 9 0 14 -4 11 -8 -3 -5 1 -9 9 -9 8 0 12 4 9 9 -3 4 2 8 11 8 9 0 14 -4
11 -8 -3 -5 1 -9 9 -9 8 0 12 4 9 9 -3 4 2 8 11 8 9 0 14 -4 11 -8 -3 -5 1 -9
9 -9 8 0 12 4 9 9 -3 4 2 8 11 8 9 0 14 -4 11 -8 -3 -5 1 -9 9 -9 8 0 12 4 9
9 -3 4 2 8 11 8 9 0 14 -4 11 -8 -3 -5 1 -9 9 -9 8 0 12 4 9 9 -3 4 2 8 11 8
9 0 14 -4 11 -8 -3 -5 1 -9 9 -9 8 0 12 4 9 9 -3 4 2 8 11 8 9 0 14 -4 11 -8
-3 -5 1 -9 9 -9 8 0 12 4 9 9 -3 4 2 8 11 8 10 0 13 -5 9 -13 -5 -8 -2 -8 9 2
16 12 22 8 18 -12 -1 -5 3 -6 9 -2 6 3 8 11 5 16 -4 5 1 9 10 9 10 0 13 -5 9
-13 -6 -9 -4 -9 7 -1 20 16 85 13 81 -4 -1 -8 2 -11 8 -7 6 3 8 11 5 16 -4 5
1 9 10 9 10 0 13 -5 9 -12 -6 -10 -4 -10 7 -2 20 16 85 13 81 -4 -1 -8 2 -11
8 -7 6 3 8 11 5 16 -4 5 1 9 10 9 10 0 13 -5 9 -13 -5 -8 -2 -7 10 2 13 11 20
11 28 3 7 -7 17 -12 23 -12 5 0 3 5 -5 11 -12 8 -10 9 10 7 17 -2 24 -8 22
-20 -2 -10 2 -18 7 -18 5 0 8 9 6 20 -2 13 2 20 11 20 10 0 12 -5 8 -12 -5 -9
-2 -8 10 1 13 11 20 11 28 3 7 -7 17 -12 23 -12 5 0 3 5 -5 10 -12 8 -11 10 6
10 27 0 36 -10 24 -25 -7 -8 -5 -12 4 -12 8 0 13 8 11 19 -2 11 2 18 11 18 9
0 12 -5 8 -12 -6 -10 -4 -10 7 0 19 17 32 15 25 -5 -5 -16 -5 -16 8 0 18 23
52 18 48 -6 -2 -9 2 -17 7 -17 5 0 8 9 6 20 -3 16 2 20 21 20 14 0 23 -4 20
-8 -3 -5 1 -9 9 -9 8 0 12 4 9 9 -3 4 2 8 11 8 9 0 14 -4 11 -8 -3 -5 1 -9 9
-9 8 0 12 4 9 9 -3 4 2 8 11 8 9 0 14 -4 11 -8 -3 -5 1 -9 9 -9 8 0 12 4 9 9
-3 4 2 8 11 8 9 0 14 -4 11 -8 -3 -5 1 -9 9 -9 8 0 12 4 9 9 -3 4 2 8 11 8 9
0 14 -4 11 -8 -3 -5 1 -9 9 -9 8 0 12 4 9 9 -3 4 2 8 11 8 9 0 14 -4 11 -8 -3
-5 1 -9 9 -9 8 0 12 4 9 9 -3 4 2 8 11 8 9 0 14 -4 11 -8 -3 -5 1 -9 9 -9 8 0
12 4 9 9 -3 4 2 8 11 8 10 0 13 -5 9 -13 -6 -9 -5 -9 8 0 17 14 29 8 22 -12
-3 -7 -1 -16 4 -19 5 -3 8 6 6 19 -1 17 3 25 12 25 10 0 12 -5 8 -12 -6 -10
-4 -10 7 -2 20 16 85 13 81 -4 -1 -8 2 -11 8 -7 6 3 8 11 5 16 -4 5 1 9 10 9
10 0 13 -5 9 -12 -5 -9 -2 -8 10 1 13 11 20 11 28 3 7 -7 17 -12 23 -12 5 0 3
5 -5 11 -12 8 -10 9 10 7 14 -2 24 -9 22 -16 -1 -8 2 -11 8 -7 6 3 8 11 5 16
-4 5 1 9 10 9 10 0 13 -5 9 -13 -5 -8 -2 -7 9 2 15 12 20 11 40 -8 26 -23 37
-27 37 -10 0 5 -4 8 -9 5 -5 -3 -14 1 -20 8 -8 10 -9 16 -1 21 5 3 10 3 10 -2
0 -12 104 -10 112 2 5 7 8 7 8 -1 0 -6 24 -10 60 -9 33 1 60 -2 60 -6 0 -5 5
-9 11 -9 5 0 7 5 4 10 -3 6 0 10 8 10 24 0 28 -13 10 -34 -18 -21 -18 -21 4
-2 13 10 20 23 17 27 -3 5 2 9 11 9 9 0 14 -4 11 -8 -3 -5 1 -9 9 -9 8 0 12 4
9 9 -3 4 2 8 11 8 9 0 14 -4 11 -8 -3 -5 1 -9 9 -9 8 0 12 4 9 9 -3 4 2 8 11
8 9 0 14 -4 11 -8 -3 -5 1 -9 9 -9 8 0 12 4 9 9 -3 4 2 8 11 8 9 0 14 -4 11
-8 -3 -5 1 -9 9 -9 8 0 12 4 9 9 -3 4 2 8 11 8 9 0 14 -4 11 -8 -3 -5 1 -9 9
-9 8 0 12 4 9 9 -3 4 2 8 11 8 9 0 14 -4 11 -8 -3 -5 1 -9 9 -9 8 0 12 4 9 9
-3 4 2 8 11 8 9 0 14 -4 11 -8 -3 -5 1 -9 9 -9 8 0 12 4 9 9 -3 4 2 8 11 8 10
0 13 -5 9 -12 -5 -9 -2 -9 9 1 16 12 22 8 18 -12 -1 -5 3 -6 9 -2 6 3 8 11 5
16 -4 5 1 9 10 9 10 0 13 -5 9 -12 -6 -10 -4 -10 7 -2 20 16 85 13 81 -4 -1
-8 2 -11 8 -7 6 3 8 11 5 16 -4 5 1 9 10 9 10 0 13 -5 9 -12 -6 -10 -4 -10 7
-2 20 16 85 13 81 -4 -1 -8 2 -11 8 -7 6 3 8 11 5 16 -4 5 1 9 10 9 10 0 13
-5 9 -12 -5 -9 -2 -8 10 1 13 11 20 11 28 3 7 -7 17 -12 23 -12 5 0 3 5 -5 11
-12 8 -10 9 10 7 17 -2 24 -8 22 -20 -2 -10 2 -18 7 -18 5 0 8 9 6 20 -2 13 2
20 11 20 10 0 12 -5 8 -12 -5 -9 -2 -8 10 1 13 11 20 11 28 3 7 -7 17 -12 23
-12 5 0 3 5 -5 10 -12 8 -11 10 6 10 27 0 36 -10 24 -25 -7 -8 -5 -12 4 -12 8
0 13 8 11 19 -2 11 2 18 11 18 9 0 12 -5 8 -12 -6 -10 -4 -10 7 0 19 17 32 15
25 -5 -5 -16 -5 -16 8 0 18 23 52 18 48 -6 -2 -9 2 -17 7 -17 5 0 8 9 6 20 -3
16 2 20 21 20 14 0 23 -4 20 -8 -3 -5 1 -9 9 -9 8 0 12 4 9 9 -3 4 2 8 11 8 9
0 14 -4 11 -8 -3 -5 1 -9 9 -9 8 0 12 4 9 9 -3 4 2 8 11 8 9 0 14 -4 11 -8 -3
-5 1 -9 9 -9 8 0 12 4 9 9 -3 4 2 8 11 8 9 0 14 -4 11 -8 -3 -5 1 -9 9 -9 8 0
12 4 9 9 -3 4 2 8 11 8 9 0 14 -4 11 -8 -3 -5 1 -9 9 -9 8 0 12 4 9 9 -3 4 2
8 11 8 9 0 14 -4 11 -8 -3 -5 1 -9 9 -9 8 0 12 4 9 9 -3 4 2 8 11 8 9 0 14 -4
11 -8 -3 -5 1 -9 9 -9 8 0 12 4 9 9 -3 4 2 8 11 8 10 0 13 -5 9 -12 -6 -10 -5
-10 8 -1 17 14 29 8 22 -12 -3 -7 -1 -16 4 -19 5 -3 8 6 6 19 -1 17 3 25 12
25 10 0 12 -5 8 -12 -6 -10 -4 -10 7 -2 20 16 85 13 81 -4 -1 -8 2 -11 8 -7 6
3 8 11 5 16 -4 5 1 9 10 9 10 0 13 -5 9 -12 -5 -9 -2 -8 10 1 13 11 20 11 28
3 7 -7 17 -12 23 -12 5 0 3 5 -5 11 -12 8 -10 9 10 7 14 -2 24 -9 22 -16 -1
-8 2 -11 8 -7 6 3 8 11 5 16 -4 5 1 9 10 9 10 0 13 -5 9 -12 -5 -9 -2 -8 9 1
15 12 20 11 40 -8 26 -23 37 -27 37 -10 0 5 -4 8 -9 5 -5 -3 -14 1 -20 8 -8
10 -9 16 -1 21 5 3 10 3 10 -2 0 -12 104 -10 112 2 5 7 8 7 8 -1 0 -6 24 -10
60 -9 33 1 60 -2 60 -6 0 -5 5 -9 11 -9 5 0 7 5 4 10 -3 6 0 10 8 10 24 0 28
-13 10 -34 -18 -21 -18 -21 4 -2 13 10 20 23 17 27 -3 5 2 9 11 9 9 0 14 -4
11 -8 -3 -5 1 -9 9 -9 8 0 12 4 9 9 -3 4 2 8 11 8 9 0 14 -4 11 -8 -3 -5 1 -9
9 -9 8 0 12 4 9 9 -3 4 2 8 11 8 9 0 14 -4 11 -8 -3 -5 1 -9 9 -9 8 0 12 4 9
9 -3 4 2 8 11 8 9 0 14 -4 11 -8 -3 -5 1 -9 9 -9 8 0 12 4 9 9 -3 4 2 8 11 8
9 0 14 -4 11 -8 -3 -5 1 -9 9 -9 8 0 12 4 9 9 -3 4 2 8 11 8 9 0 14 -4 11 -8
-3 -5 1 -9 9 -9 8 0 12 4 9 9 -3 4 2 8 11 8 9 0 14 -4 11 -8 -3 -5 1 -9 9 -9
8 0 12 4 9 9 -3 4 2 8 11 8 10 0 13 -5 9 -12 -5 -9 -2 -9 9 1 16 12 22 8 18
-12 -1 -5 3 -6 9 -2 6 3 8 11 5 16 -4 5 1 9 10 9 10 0 13 -5 9 -12 -6 -10 -4
-10 7 -2 20 16 85 13 81 -4 -1 -8 2 -11 8 -7 6 3 8 11 5 16 -4 5 1 9 10 9 10
0 13 -5 9 -13 -6 -9 -4 -9 7 -1 20 16 85 13 81 -4 -1 -8 2 -11 8 -7 6 3 8 11
5 16 -4 5 1 9 10 9 10 0 13 -5 9 -12 -5 -9 -2 -8 10 1 13 11 20 11 28 3 7 -7
17 -12 23 -12 5 0 3 5 -5 11 -12 8 -10 9 10 7 17 -2 24 -8 22 -20 -2 -10 2
-18 7 -18 5 0 8 9 6 20 -2 13 2 20 11 20 10 0 12 -5 8 -12 -5 -9 -2 -8 10 1
13 11 20 11 28 3 7 -7 17 -12 23 -12 5 0 3 5 -5 10 -12 8 -11 10 6 10 27 0 36
-10 24 -25 -7 -8 -5 -12 4 -12 8 0 13 8 11 19 -2 11 2 18 11 18 9 0 12 -5 8
-12 -6 -10 -4 -10 7 0 19 17 32 15 25 -5 -5 -16 -5 -16 8 0 18 23 52 18 48 -6
-2 -9 2 -17 7 -17 5 0 8 9 6 20 -3 16 2 20 21 20 14 0 23 -4 20 -8 -3 -5 1 -9
9 -9 8 0 12 4 9 9 -3 4 2 8 11 8 9 0 14 -4 11 -8 -3 -5 1 -9 9 -9 8 0 12 4 9
9 -3 4 2 8 11 8 9 0 14 -4 11 -8 -3 -5 1 -9 9 -9 8 0 12 4 9 9 -3 4 2 8 11 8
9 0 14 -4 11 -8 -3 -5 1 -9 9 -9 8 0 12 4 9 9 -3 4 2 8 11 8 9 0 14 -4 11 -8
-3 -5 1 -9 9 -9 8 0 12 4 9 9 -3 4 2 8 11 8 9 0 14 -4 11 -8 -3 -5 1 -9 9 -9
8 0 12 4 9 9 -3 4 2 8 11 8 9 0 14 -4 11 -8 -3 -5 1 -9 9 -9 8 0 12 4 9 9 -3
4 2 8 11 8 10 0 13 -5 9 -12 -6 -10 -5 -10 8 -1 17 14 29 8 22 -12 -3 -7 -1
-16 4 -19 5 -3 8 6 6 19 -1 17 3 25 12 25 10 0 12 -5 8 -12 -6 -10 -4 -10 7
-2 20 16 85 13 81 -4 -1 -8 2 -11 8 -7 6 3 8 11 5 16 -4 5 1 9 10 9 10 0 13
-5 9 -12 -5 -9 -2 -8 10 1 13 11 20 11 28 3 7 -7 17 -12 23 -12 5 0 3 5 -5 11
-12 8 -10 9 10 7 14 -2 24 -9 22 -16 -1 -8 2 -11 8 -7 6 3 8 11 5 16 -4 5 1 9
10 9 10 0 13 -5 9 -12 -5 -9 -2 -8 9 1 15 12 20 11 40 -8 26 -23 37 -27 37
-10 0 5 -4 8 -9 5 -5 -3 -14 1 -20 8 -8 10 -9 16 -1 21 5 3 10 3 10 -2 0 -12
104 -10 112 2 5 7 8 7 8 -1 0 -6 24 -10 60 -9 33 1 60 -2 60 -6 0 -5 5 -9 11
-9 5 0 7 5 4 10 -3 6 0 10 8 10 24 0 28 -13 10 -34 -18 -21 -18 -21 4 -2 13
10 20 23 17 27 -3 5 2 9 11 9 9 0 14 -4 11 -8 -3 -5 1 -9 9 -9 8 0 12 4 9 9
-3 4 2 8 11 8 9 0 14 -4 11 -8 -3 -5 1 -9 9 -9 8 0 12 4 9 9 -3 4 2 8 11 8 9
0 14 -4 11 -8 -3 -5 1 -9 9 -9 8 0 12 4 9 9 -3 4 2 8 11 8 9 0 14 -4 11 -8 -3
-5 1 -9 9 -9 8 0 12 4 9 9 -3 4 2 8 11 8 9 0 14 -4 11 -8 -3 -5 1 -9 9 -9 8 0
12 4 9 9 -3 4 2 8 11 8 9 0 14 -4 11 -8 -3 -5 1 -9 9 -9 8 0 12 4 9 9 -3 4 2
8 11 8 9 0 14 -4 11 -8 -3 -5 1 -9 9 -9 8 0 12 4 9 9 -3 4 2 8 11 8 10 0 13
-5 9 -12 -5 -9 -2 -9 9 1 16 12 22 8 18 -12 -1 -5 3 -6 9 -2 6 3 8 11 5 16 -4
5 1 9 10 9 10 0 13 -5 9 -12 -6 -10 -4 -10 7 -2 20 16 85 13 81 -4 -1 -8 2
-11 8 -7 6 3 8 11 5 16 -4 5 1 9 10 9 10 0 13 -5 9 -12 -6 -10 -4 -10 7 -2 20
16 85 13 81 -4 -1 -8 2 -11 8 -7 6 3 8 11 5 16 -4 5 1 9 10 9 10 0 13 -5 9
-12 -5 -9 -2 -8 10 1 13 11 20 11 28 3 7 -7 17 -12 23 -12 5 0 3 5 -5 11 -12
8 -10 9 10 7 17 -2 24 -8 22 -20 -2 -10 2 -18 7 -18 5 0 8 9 6 20 -2 13 2 20
11 20 10 0 12 -5 8 -12 -5 -9 -2 -8 10 1 13 11 20 11 28 3 7 -7 17 -12 23 -12
5 0 3 5 -5 10 -12 8 -11 10 6 10 27 0 36 -10 24 -25 -7 -8 -5 -12 4 -12 8 0
13 8 11 19 -2 11 2 18 11 18 9 0 12 -5 8 -12 -6 -10 -4 -10 7 -1 19 18 32 16
25 -4 -5 -16 -5 -16 8 0 18 23 52 18 48 -6 -2 -9 2 -17 7 -17 5 0 8 9 6 20 -3
16 2 20 21 20 14 0 23 -4 20 -8 -3 -5 1 -9 9 -9 8 0 12 4 9 9 -3 4 2 8 11 8 9
0 14 -4 11 -8 -3 -5 1 -9 9 -9 8 0 12 4 9 9 -3 4 2 8 11 8 9 0 14 -4 11 -8 -3
-5 1 -9 9 -9 8 0 12 4 9 9 -3 4 2 8 11 8 9 0 14 -4 11 -8 -3 -5 1 -9 9 -9 8 0
12 4 9 9 -3 4 2 8 11 8 9 0 14 -4 11 -8 -3 -5 1 -9 9 -9 8 0 12 4 9 9 -3 4 2
8 11 8 9 0 14 -4 11 -8 -3 -5 1 -9 9 -9 8 0 12 4 9 9 -3 4 2 8 11 8 9 0 14 -4
11 -8 -3 -5 1 -9 9 -9 8 0 12 4 9 9 -3 4 2 8 11 8 9 0 14 -4 11 -8 -3 -5 1 -9
9 -9 8 0 12 4 10 8 -3 4 12 7 33 7 20 0 40 -5 44 -11 5 -8 8 -7 8 3 0 8 10 15
23 16 48 3 88 11 99 22 6 6 17 8 24 5 8 -3 14 0 14 5 0 6 9 9 19 7 11 -2 22 3
25 11 3 9 10 12 16 9 5 -3 10 -1 10 5 0 6 5 8 10 5 6 -3 10 -2 10 4 0 5 9 13
20 16 11 4 18 11 15 16 -4 5 1 9 9 9 9 0 16 5 16 10 0 6 5 10 11 10 5 0 7 -5
3 -12 -4 -7 -3 -8 5 -4 6 4 9 12 6 17 -4 5 1 12 9 15 9 3 16 13 16 21 0 8 5
11 10 8 6 -3 10 -1 10 5 0 6 5 8 12 4 6 -4 8 -3 5 3 -9 14 15 63 31 63 7 0 10
5 7 10 -4 6 -2 16 3 23 6 7 10 14 11 17 0 6 5 26 20 71 6 19 11 43 11 53 0 9
5 14 10 11 6 -3 10 -1 10 4 0 6 -4 11 -8 11 -5 0 -8 16 -8 35 1 19 5 35 11 35
6 0 6 3 -1 8 -13 9 -13 64 1 74 7 5 6 8 0 8 -15 0 -17 50 -2 50 8 0 7 4 -3 10
-13 9 -13 10 0 10 9 0 11 3 4 8 -13 9 -13 64 1 74 6 5 6 8 -1 8 -6 0 -11 16
-11 35 0 19 5 35 11 35 8 0 8 2 0 8 -13 9 -13 64 1 74 7 5 6 8 0 8 -15 0 -17
50 -2 50 8 0 7 4 -3 10 -13 9 -13 10 0 10 10 0 11 3 4 8 -13 8 -13 61 0 81 6
9 5 12 0 8 -6 -3 -11 4 -11 16 -1 12 3 25 10 29 9 6 8 8 -2 8 -11 0 -11 3 0
17 12 15 12 16 -1 8 -13 -8 -13 -7 0 10 9 11 10 16 3 11 -16 -9 -13 35 2 46 6
5 6 8 -1 8 -6 0 -10 19 -10 48 1 26 -1 64 -5 85 -4 24 -3 37 5 37 6 0 4 5 -4
10 -9 5 -17 25 -18 47 -1 21 -6 61 -11 88 -5 28 -10 57 -10 65 0 8 -3 29 -6
45 -3 17 -8 46 -10 65 -3 19 -9 60 -14 90 -12 71 -20 123 -27 181 -6 50 -12
84 -14 84 -1 0 -3 16 -5 35 -3 19 -7 53 -11 75 -3 22 -7 51 -9 65 -3 14 -7 41
-10 60 -3 19 -7 49 -9 66 -4 33 -14 99 -23 149 -3 17 -6 49 -8 71 -1 23 -5 46
-8 50 -3 5 -6 29 -8 54 -1 25 -5 49 -8 55 -2 5 -6 23 -8 40 -4 36 -22 168 -30
210 -3 17 -6 41 -8 55 -5 43 -25 183 -36 245 -6 33 -12 76 -14 95 -2 19 -4 35
-5 35 -1 0 -7 52 -13 120 -2 17 -6 35 -9 40 -3 6 -7 33 -9 60 -1 28 -5 55 -8
60 -3 6 -6 19 -7 30 0 11 -4 36 -7 55 -9 48 -21 140 -21 168 -1 12 -4 22 -7
22 -3 0 -6 21 -8 47 -1 26 -5 51 -8 56 -3 4 -6 25 -8 45 -4 46 -14 118 -22
157 -3 17 -7 41 -9 55 -1 14 -5 45 -8 68 -3 24 -7 56 -10 70 -4 24 -8 51 -21
152 -2 14 -7 45 -11 70 -4 25 -8 53 -8 63 0 9 -3 17 -6 17 -3 0 -5 10 -6 23 0
25 -8 83 -23 177 -6 36 -13 83 -15 105 -6 45 -15 105 -23 150 -3 17 -6 41 -7
55 -2 14 -6 36 -9 50 -7 26 -15 91 -22 175 -3 28 -7 61 -10 75 -4 13 -8 40
-11 59 -2 19 -7 48 -10 65 -4 17 -8 40 -9 51 -2 11 -10 39 -18 62 -9 22 -13
44 -10 47 4 3 1 6 -5 6 -7 0 -12 4 -12 10 0 45 -115 222 -200 307 -86 87 -232
173 -335 198 -16 4 -39 9 -50 12 -11 3 -472 7 -1025 8 l-1005 1 0 524 0 524
790 2 c435 1 806 5 825 8 19 3 58 8 85 12 28 3 61 8 75 10 14 3 39 7 55 10 17
3 45 10 62 15 18 6 37 8 43 4 5 -3 10 -2 10 3 0 5 12 12 28 15 51 10 117 32
123 40 3 5 9 8 13 7 13 -2 106 35 106 42 0 5 6 8 14 8 7 0 19 7 26 15 7 8 21
15 31 15 11 0 19 4 19 9 0 5 20 22 45 38 25 15 45 31 45 35 0 4 12 20 26 35
32 34 61 94 70 142 13 67 8 524 -6 567 -48 144 -196 256 -448 338 -59 19 -121
37 -137 40 -17 2 -30 5 -30 6 0 1 -9 3 -20 5 -11 1 -33 5 -50 9 -62 12 -185
27 -268 31 -47 3 -102 7 -122 10 -25 3 -34 1 -29 -7 5 -7 3 -8 -5 -3 -21 12
-121 14 -121 1 0 -7 -3 -7 -8 -1 -8 11 -91 13 -108 3 -6 -4 -14 -4 -18 -1 -11
11 -60 12 -73 1 -7 -6 -13 -7 -13 -2 0 5 -23 9 -50 10 -29 0 -50 -4 -50 -10 0
-7 -3 -7 -8 -1 -8 12 -202 14 -202 2 0 -4 -5 -5 -12 -1 -17 11 -148 11 -148 1
0 -4 -5 -5 -12 -1 -19 12 -178 11 -178 -1 0 -6 -3 -7 -8 0 -8 12 -102 13 -119
2 -7 -5 -13 -5 -13 0 0 12 -94 11 -102 -1 -5 -7 -8 -7 -8 -1 0 11 -104 14
-115 3 -12 -11 -52 13 -64 38 -6 13 -15 24 -21 24 -5 0 -10 6 -10 13 -1 19
-83 76 -142 99 -51 19 -75 20 -588 22 -294 0 -557 -2 -585 -5z"/>
<path d="M1856 3062 c-3 -5 1 -9 9 -9 8 0 12 4 9 9 -3 4 -7 8 -9 8 -2 0 -6 -4
-9 -8z"/>
<path d="M1810 3020 c0 -5 5 -10 11 -10 5 0 7 5 4 10 -3 6 -8 10 -11 10 -2 0
-4 -4 -4 -10z"/>
<path d="M1775 2981 c-3 -5 -2 -12 3 -15 5 -3 9 1 9 9 0 17 -3 19 -12 6z"/>
<path d="M10175 2981 c-3 -5 -2 -12 3 -15 5 -3 9 1 9 9 0 17 -3 19 -12 6z"/>
<path d="M1733 2935 c0 -8 4 -12 9 -9 5 3 6 10 3 15 -9 13 -12 11 -12 -6z"/>
<path d="M10194 2942 c4 -3 14 -7 22 -8 9 -1 13 0 10 4 -4 3 -14 7 -22 8 -9 1
-13 0 -10 -4z"/>
<path d="M1823 2924 c9 -11 15 -24 12 -27 -3 -4 -2 -5 2 -2 4 3 8 13 9 21 1 9
0 13 -3 10 -4 -3 -13 0 -22 6 -12 10 -12 7 2 -8z"/>
<path d="M1770 2920 c0 -5 5 -10 11 -10 5 0 7 5 4 10 -3 6 -8 10 -11 10 -2 0
-4 -4 -4 -10z"/>
<path d="M1735 2900 c-3 -5 -1 -10 4 -10 6 0 11 5 11 10 0 6 -2 10 -4 10 -3 0
-8 -4 -11 -10z"/>
<path d="M1797 2848 c19 -21 31 -25 14 -5 -6 8 -9 16 -6 19 3 2 -2 5 -10 5
-13 0 -13 -3 2 -19z"/>
<path d="M1736 2842 c-3 -4 4 -9 15 -9 23 -2 25 3 4 10 -8 4 -16 3 -19 -1z"/>
<path d="M1696 2818 c3 -5 10 -6 15 -3 13 9 11 12 -6 12 -8 0 -12 -4 -9 -9z"/>
<path d="M1775 2810 c-4 -6 -11 -7 -17 -4 -7 4 -8 2 -4 -5 6 -9 11 -9 22 0 14
11 18 19 10 19 -3 0 -8 -5 -11 -10z"/>
<path d="M1817 2799 c6 -23 9 -24 16 -5 3 8 0 17 -7 19 -10 4 -12 -1 -9 -14z"/>
<path d="M1789 2783 c-13 -16 -12 -17 4 -4 9 7 17 15 17 17 0 8 -8 3 -21 -13z"/>
<path d="M10206 2765 c-11 -8 -15 -15 -9 -15 6 0 16 7 23 15 16 19 11 19 -14
0z"/>
<path d="M1795 2759 c-3 -4 2 -6 10 -5 21 3 28 13 10 13 -9 0 -18 -4 -20 -8z"/>
<path d="M10233 2745 c0 -8 4 -12 9 -9 5 3 6 10 3 15 -9 13 -12 11 -12 -6z"/>
<path d="M1653 2735 c0 -8 4 -12 9 -9 5 3 6 10 3 15 -9 13 -12 11 -12 -6z"/>
<path d="M1833 2744 c3 -3 1 -18 -4 -33 -6 -15 -6 -22 -1 -16 17 18 24 55 11
55 -7 0 -10 -3 -6 -6z"/>
<path d="M1754 2695 c0 -14 4 -25 8 -25 4 0 7 9 5 20 -5 29 -13 33 -13 5z"/>
<path d="M1656 2698 c3 -4 11 -5 19 -1 21 7 19 12 -4 10 -11 0 -18 -5 -15 -9z"/>
<path d="M1706 2702 c-2 -4 4 -8 14 -8 10 0 16 4 14 8 -3 4 -9 8 -14 8 -5 0
-11 -4 -14 -8z"/>
<path d="M1787 2699 c7 -7 15 -10 18 -7 3 3 -2 9 -12 12 -14 6 -15 5 -6 -5z"/>
<path d="M10239 2708 c-7 -23 -4 -35 7 -35 9 0 11 4 4 12 -5 7 -7 15 -3 18 3
4 3 7 0 7 -4 0 -7 -1 -8 -2z"/>
<path d="M10273 2695 c0 -8 4 -12 9 -9 5 3 6 10 3 15 -9 13 -12 11 -12 -6z"/>
<path d="M1655 2660 c3 -5 8 -10 11 -10 2 0 4 5 4 10 0 6 -5 10 -11 10 -5 0
-7 -4 -4 -10z"/>
<path d="M10237 2653 c-10 -9 -9 -23 1 -23 5 0 9 7 9 15 0 17 -1 18 -10 8z"/>
<path d="M10340 2646 c0 -2 8 -10 18 -17 15 -13 16 -12 3 4 -13 16 -21 21 -21
13z"/>
<path d="M1826 2623 c-6 -14 -5 -15 5 -6 7 7 10 15 7 18 -3 3 -9 -2 -12 -12z"/>
<path d="M1655 2620 c-3 -5 -1 -10 4 -10 6 0 11 5 11 10 0 6 -2 10 -4 10 -3 0
-8 -4 -11 -10z"/>
<path d="M1787 2619 c7 -7 15 -10 18 -7 3 3 -2 9 -12 12 -14 6 -15 5 -6 -5z"/>
<path d="M10270 2616 c0 -2 8 -10 18 -17 15 -13 16 -12 3 4 -13 16 -21 21 -21
13z"/>
<path d="M1754 2585 c0 -28 8 -24 13 5 2 11 -1 20 -5 20 -4 0 -8 -11 -8 -25z"/>
<path d="M1655 2580 c-2 -3 5 -6 15 -7 11 -1 22 2 24 5 3 4 -4 8 -15 8 -11 0
-22 -3 -24 -6z"/>
<path d="M1785 2580 c-3 -6 1 -7 9 -4 18 7 21 14 7 14 -6 0 -13 -4 -16 -10z"/>
<path d="M1725 2560 c10 -11 20 -20 23 -20 3 0 -3 9 -13 20 -10 11 -20 20 -23
20 -3 0 3 -9 13 -20z"/>
<path d="M10290 2539 c0 -5 5 -7 10 -4 6 3 10 8 10 11 0 2 -4 4 -10 4 -5 0
-10 -5 -10 -11z"/>
<path d="M1811 2531 c-8 -5 -25 -7 -38 -5 -12 2 -23 0 -23 -4 0 -5 12 -8 28
-7 15 1 32 -2 37 -6 7 -5 11 0 11 12 0 10 0 19 -1 19 0 0 -6 -4 -14 -9z"/>
<path d="M1716 2522 c-3 -5 1 -9 9 -9 8 0 12 4 9 9 -3 4 -7 8 -9 8 -2 0 -6 -4
-9 -8z"/>
<path d="M10195 2510 c10 -11 20 -20 23 -20 3 0 -3 9 -13 20 -10 11 -20 20
-23 20 -3 0 3 -9 13 -20z"/>
<path d="M10234 2466 c0 -20 5 -33 13 -33 8 0 9 5 4 11 -5 6 -7 19 -6 28 2 10
0 20 -4 22 -4 3 -7 -10 -7 -28z"/>
<path d="M1835 2480 c3 -5 8 -10 11 -10 2 0 4 5 4 10 0 6 -5 10 -11 10 -5 0
-7 -4 -4 -10z"/>
<path d="M1713 2465 c0 -8 4 -12 9 -9 5 3 6 10 3 15 -9 13 -12 11 -12 -6z"/>
<path d="M1795 2463 c1 -10 -1 -25 -6 -33 -5 -12 -2 -16 11 -16 12 0 16 4 11
11 -5 5 -7 18 -6 27 2 10 0 20 -5 23 -5 3 -7 -3 -5 -12z"/>
<path d="M10273 2455 c0 -8 4 -12 9 -9 5 3 6 10 3 15 -9 13 -12 11 -12 -6z"/>
<path d="M1717 2432 c-15 -16 -15 -19 -2 -19 8 0 13 3 10 5 -3 3 0 11 6 19 17
20 5 16 -14 -5z"/>
<path d="M1754 2434 c1 -8 4 -15 7 -16 2 -2 3 -1 2 1 -2 2 2 9 7 16 7 8 5 12
-4 12 -8 0 -13 -6 -12 -13z"/>
<path d="M10191 2433 c7 -12 15 -20 18 -17 3 2 -3 12 -13 22 -17 16 -18 16 -5
-5z"/>
<path d="M10290 2420 c0 -5 5 -10 11 -10 5 0 7 5 4 10 -3 6 -8 10 -11 10 -2 0
-4 -4 -4 -10z"/>
<path d="M1713 2375 c0 -8 4 -12 9 -9 5 3 6 10 3 15 -9 13 -12 11 -12 -6z"/>
<path d="M1744 2370 c0 -9 6 -17 13 -17 7 0 11 3 8 5 -3 3 -1 10 5 16 6 8 3
12 -8 12 -10 0 -18 -8 -18 -16z"/>
<path d="M10206 2365 c-18 -14 -18 -14 1 -12 11 0 20 7 20 14 0 7 -1 13 -1 13
-1 0 -9 -7 -20 -15z"/>
<path d="M1781 2354 c0 -11 3 -14 6 -6 3 7 2 16 -1 19 -3 4 -6 -2 -5 -13z"/>
<path d="M1743 2324 c9 -11 15 -23 12 -26 -3 -2 2 -5 10 -5 10 0 12 4 5 12 -5
7 -6 16 -2 21 4 5 3 6 -2 2 -5 -4 -16 -2 -25 4 -12 10 -12 7 2 -8z"/>
<path d="M1695 2320 c-4 -6 -1 -9 7 -8 7 2 12 -2 11 -8 -1 -6 5 -11 13 -11 11
0 11 4 -3 19 -19 21 -20 21 -28 8z"/>
<path d="M10295 2309 c-4 -6 -5 -12 -2 -15 2 -3 7 2 10 11 7 17 1 20 -8 4z"/>
<path d="M10195 2270 c10 -11 20 -20 23 -20 3 0 -3 9 -13 20 -10 11 -20 20
-23 20 -3 0 3 -9 13 -20z"/>
<path d="M10240 2280 c-9 -6 -10 -10 -3 -10 6 0 15 5 18 10 8 12 4 12 -15 0z"/>
<path d="M1757 2248 c19 -21 31 -25 14 -5 -6 8 -9 16 -6 19 3 2 -2 5 -10 5
-13 0 -13 -3 2 -19z"/>
<path d="M1790 2255 c5 -7 6 -15 2 -20 -4 -4 3 -2 16 4 26 14 30 23 5 14 -10
-4 -14 -2 -10 4 3 5 0 10 -8 10 -10 0 -12 -4 -5 -12z"/>
<path d="M1726 2205 c-18 -14 -18 -14 1 -12 11 0 20 7 20 14 0 7 -1 13 -1 13
-1 0 -9 -7 -20 -15z"/>
<path d="M1774 2199 c0 -13 3 -15 13 -7 7 6 13 12 13 13 0 2 -6 5 -13 8 -7 3
-13 -3 -13 -14z"/>
<path d="M10206 2205 c-11 -8 -15 -15 -9 -15 6 0 16 7 23 15 16 19 11 19 -14
0z"/>
<path d="M10279 2193 c-13 -16 -12 -17 4 -4 16 13 21 21 13 21 -2 0 -10 -8
-17 -17z"/>
<path d="M10233 2185 c0 -8 4 -12 9 -9 5 3 6 10 3 15 -9 13 -12 11 -12 -6z"/>
<path d="M1771 2154 c0 -11 3 -14 6 -6 3 7 2 16 -1 19 -3 4 -6 -2 -5 -13z"/>
<path d="M1790 2163 c0 -6 8 -17 18 -24 16 -13 16 -13 2 6 -8 11 -16 22 -17
24 -2 2 -3 0 -3 -6z"/>
<path d="M10233 2145 c0 -8 4 -12 9 -9 5 3 6 10 3 15 -9 13 -12 11 -12 -6z"/>
<path d="M1706 2142 c-2 -4 4 -8 14 -8 10 0 16 4 14 8 -3 4 -9 8 -14 8 -5 0
-11 -4 -14 -8z"/>
<path d="M1630 2120 c0 -5 5 -10 11 -10 5 0 7 5 4 10 -3 6 -8 10 -11 10 -2 0
-4 -4 -4 -10z"/>
<path d="M1773 2113 c0 -9 4 -10 14 -2 7 6 13 12 13 14 0 1 -6 2 -13 2 -8 0
-14 -6 -14 -14z"/>
<path d="M1820 2120 c-9 -6 -10 -10 -3 -10 6 0 15 5 18 10 8 12 4 12 -15 0z"/>
<path d="M10195 2110 c10 -11 20 -20 23 -20 3 0 -3 9 -13 20 -10 11 -20 20
-23 20 -3 0 3 -9 13 -20z"/>
<path d="M10299 2108 c-5 -18 -6 -38 -1 -34 7 8 12 36 6 36 -2 0 -4 -1 -5 -2z"/>
<path d="M1753 2085 c0 -8 4 -12 9 -9 5 3 6 10 3 15 -9 13 -12 11 -12 -6z"/>
<path d="M1680 2085 c0 -2 6 -8 13 -14 10 -8 14 -7 14 2 0 8 -6 14 -14 14 -7
0 -13 -1 -13 -2z"/>
<path d="M1834 2066 c1 -8 5 -18 8 -22 4 -3 5 1 4 10 -1 8 -5 18 -8 22 -4 3
-5 -1 -4 -10z"/>
<path d="M10206 2045 c-18 -14 -18 -14 1 -12 11 0 20 7 20 14 0 7 -1 13 -1 13
-1 0 -9 -7 -20 -15z"/>
<path d="M1546 2038 c3 -5 10 -6 15 -3 13 9 11 12 -6 12 -8 0 -12 -4 -9 -9z"/>
<path d="M1667 2039 c7 -7 15 -10 18 -7 3 3 -2 9 -12 12 -14 6 -15 5 -6 -5z"/>
<path d="M1766 2041 c-3 -4 6 -7 19 -7 14 0 22 2 19 5 -8 8 -34 10 -38 2z"/>
<path d="M1633 2025 c0 -8 4 -12 9 -9 5 3 6 10 3 15 -9 13 -12 11 -12 -6z"/>
<path d="M1795 1990 c0 -16 3 -31 6 -34 3 -3 5 7 5 23 -1 16 -3 32 -6 35 -3 3
-5 -8 -5 -24z"/>
<path d="M10206 1965 c-11 -8 -15 -15 -9 -15 6 0 16 7 23 15 16 19 11 19 -14
0z"/>
<path d="M1830 1956 c7 -7 13 -7 20 0 6 6 3 10 -10 10 -13 0 -16 -4 -10 -10z"/>
<path d="M10240 1960 c-9 -6 -10 -10 -3 -10 6 0 15 5 18 10 8 12 4 12 -15 0z"/>
<path d="M1655 1940 c-3 -5 -1 -10 4 -10 6 0 11 5 11 10 0 6 -2 10 -4 10 -3 0
-8 -4 -11 -10z"/>
<path d="M1719 1948 c-4 -12 -5 -57 0 -53 6 6 10 55 4 55 -1 0 -3 -1 -4 -2z"/>
<path d="M1740 1946 c0 -2 8 -10 18 -17 15 -13 16 -12 3 4 -13 16 -21 21 -21
13z"/>
<path d="M1828 1933 c6 -2 18 -2 25 0 6 3 1 5 -13 5 -14 0 -19 -2 -12 -5z"/>
<path d="M1760 1895 c-7 -8 -9 -15 -5 -15 4 0 1 -8 -6 -17 -13 -16 -12 -17 4
-4 9 8 15 16 12 19 -3 3 0 11 6 19 6 7 9 13 6 13 -2 0 -10 -7 -17 -15z"/>
<path d="M1721 1876 c-9 -11 -9 -16 1 -22 7 -4 10 -4 6 1 -4 4 -3 14 3 22 6 7
9 13 6 13 -2 0 -10 -6 -16 -14z"/>
<path d="M10191 1887 c2 -2 11 -8 20 -15 12 -9 16 -9 16 1 0 7 -9 14 -20 14
-11 1 -18 1 -16 0z"/>
<path d="M1655 1860 c-3 -5 -1 -10 4 -10 6 0 11 5 11 10 0 6 -2 10 -4 10 -3 0
-8 -4 -11 -10z"/>
<path d="M10175 1859 c-5 -7 -4 -10 3 -5 17 10 25 -13 11 -32 -12 -15 -11 -15
6 1 18 16 18 18 3 33 -12 12 -17 13 -23 3z"/>
<path d="M1780 1851 c0 -6 4 -13 10 -16 6 -3 7 1 4 9 -7 18 -14 21 -14 7z"/>
<path d="M1846 1844 c-23 -23 -20 -30 4 -9 11 10 20 20 20 22 0 7 -9 2 -24
-13z"/>
<path d="M10289 1837 c6 -8 7 -18 3 -22 -4 -5 -1 -5 6 -1 10 6 10 11 1 22 -6
8 -14 14 -16 14 -3 0 0 -6 6 -13z"/>
<path d="M10340 1846 c0 -2 8 -10 18 -17 15 -13 16 -12 3 4 -13 16 -21 21 -21
13z"/>
<path d="M1750 1826 c0 -2 7 -7 16 -10 8 -3 12 -2 9 4 -6 10 -25 14 -25 6z"/>
<path d="M1854 1800 c0 -13 5 -16 16 -11 8 5 21 6 28 4 6 -3 12 0 12 5 0 6 -8
9 -17 7 -10 -1 -23 1 -28 6 -7 5 -11 1 -11 -11z"/>
<path d="M1739 1793 c-13 -16 -12 -17 4 -4 9 7 17 15 17 17 0 8 -8 3 -21 -13z"/>
<path d="M10156 1795 c-9 -26 -7 -32 5 -12 6 10 9 21 6 23 -2 3 -7 -2 -11 -11z"/>
<path d="M1655 1780 c-3 -5 -1 -10 4 -10 6 0 11 5 11 10 0 6 -2 10 -4 10 -3 0
-8 -4 -11 -10z"/>
<path d="M1788 1783 c7 -3 16 -2 19 1 4 3 -2 6 -13 5 -11 0 -14 -3 -6 -6z"/>
<path d="M1815 1770 c-4 -6 -10 -8 -15 -5 -4 3 -14 -3 -21 -13 -12 -15 -12
-16 2 -5 9 7 18 11 21 8 3 -3 11 1 18 10 7 8 10 15 7 15 -3 0 -9 -5 -12 -10z"/>
<path d="M10169 1763 c-13 -16 -12 -17 4 -4 16 13 21 21 13 21 -2 0 -10 -8
-17 -17z"/>
<path d="M1656 1742 c-3 -5 1 -9 9 -9 8 0 12 4 9 9 -3 4 -7 8 -9 8 -2 0 -6 -4
-9 -8z"/>
<path d="M1875 1733 c1 -10 -1 -23 -6 -28 -5 -7 -1 -11 11 -11 13 0 16 5 11
16 -5 8 -6 21 -4 28 3 6 0 12 -5 12 -6 0 -9 -8 -7 -17z"/>
<path d="M1795 1730 c-4 -6 -10 -8 -14 -6 -4 3 -8 -1 -8 -9 0 -12 4 -12 21 2
12 10 23 19 25 20 2 2 -1 3 -7 3 -6 0 -14 -5 -17 -10z"/>
<path d="M10159 1738 c-6 -23 -7 -48 -1 -48 4 0 8 11 8 25 0 21 -4 33 -7 23z"/>
<path d="M1990 1720 c0 -5 5 -10 11 -10 5 0 7 5 4 10 -3 6 -8 10 -11 10 -2 0
-4 -4 -4 -10z"/>
<path d="M10194 1708 c-19 -23 -19 -23 2 -5 11 9 24 14 29 10 4 -5 5 -2 1 5
-9 16 -10 16 -32 -10z"/>
<path d="M1715 1700 c-3 -5 -1 -10 4 -10 6 0 11 5 11 10 0 6 -2 10 -4 10 -3 0
-8 -4 -11 -10z"/>
<path d="M1950 1695 c5 -7 7 -15 3 -19 -4 -4 1 -4 11 0 15 6 17 4 11 -7 -5 -8
-4 -11 0 -6 16 14 14 36 -3 30 -9 -4 -13 -2 -9 4 3 5 0 10 -8 10 -10 0 -12 -4
-5 -12z"/>
<path d="M1814 1680 c0 -13 4 -16 10 -10 7 7 7 13 0 20 -6 6 -10 3 -10 -10z"/>
<path d="M1755 1671 c1 -9 -1 -21 -6 -27 -5 -7 -3 -11 5 -11 8 0 13 7 11 16
-1 9 1 21 6 27 5 7 3 11 -5 11 -8 0 -13 -7 -11 -16z"/>
<path d="M10213 1675 c0 -8 4 -12 9 -9 4 3 8 9 8 15 0 5 -4 9 -8 9 -5 0 -9 -7
-9 -15z"/>
<path d="M2000 1676 c0 -2 7 -7 16 -10 8 -3 12 -2 9 4 -6 10 -25 14 -25 6z"/>
<path d="M1695 1660 c3 -5 8 -10 11 -10 2 0 4 5 4 10 0 6 -5 10 -11 10 -5 0
-7 -4 -4 -10z"/>
<path d="M1870 1655 c12 -14 8 -39 -10 -61 -10 -12 -11 -15 -2 -10 7 4 20 2
30 -6 15 -11 15 -11 5 3 -11 13 -10 60 2 79 2 3 -5 6 -15 6 -12 0 -16 -4 -10
-11z"/>
<path d="M10246 1662 c-3 -5 1 -9 9 -9 8 0 12 4 9 9 -3 4 -7 8 -9 8 -2 0 -6
-4 -9 -8z"/>
<path d="M1954 1643 c2 -10 -2 -22 -8 -26 -7 -6 -6 -7 3 -5 16 5 24 35 11 43
-5 3 -7 -3 -6 -12z"/>
<path d="M2037 1653 c-8 -17 -1 -37 13 -40 10 -3 11 -2 4 4 -6 4 -10 16 -8 26
2 18 -2 23 -9 10z"/>
<path d="M10086 1641 c-15 -17 -15 -19 -1 -25 10 -3 14 -2 10 5 -4 5 -1 16 5
24 18 22 6 18 -14 -4z"/>
<path d="M10143 1644 c9 -11 15 -23 12 -26 -3 -2 2 -5 10 -5 10 0 12 4 5 12
-5 7 -6 16 -2 21 4 5 3 6 -2 2 -5 -4 -16 -2 -25 4 -12 10 -12 7 2 -8z"/>
<path d="M10199 1633 c-13 -16 -12 -17 4 -4 16 13 21 21 13 21 -2 0 -10 -8
-17 -17z"/>
<path d="M10113 1627 c0 -8 6 -14 14 -14 9 0 10 4 2 14 -6 7 -12 13 -14 13 -1
0 -2 -6 -2 -13z"/>
<path d="M1816 1607 c3 -10 9 -15 12 -12 3 3 0 11 -7 18 -10 9 -11 8 -5 -6z"/>
<path d="M10054 1599 c0 -13 3 -15 13 -7 7 6 13 12 13 13 0 2 -6 5 -13 8 -7 3
-13 -3 -13 -14z"/>
<path d="M1960 1600 c-9 -6 -10 -10 -3 -10 6 0 15 5 18 10 8 12 4 12 -15 0z"/>
<path d="M1995 1600 c3 -5 8 -10 11 -10 2 0 4 5 4 10 0 6 -5 10 -11 10 -5 0
-7 -4 -4 -10z"/>
<path d="M10196 1593 c-6 -14 -5 -15 5 -6 7 7 10 15 7 18 -3 3 -9 -2 -12 -12z"/>
<path d="M10230 1600 c0 -5 5 -10 11 -10 5 0 7 5 4 10 -3 6 -8 10 -11 10 -2 0
-4 -4 -4 -10z"/>
<path d="M1694 1582 c4 -3 14 -7 22 -8 9 -1 13 0 10 4 -4 3 -14 7 -22 8 -9 1
-13 0 -10 -4z"/>
<path d="M2029 1575 c5 -5 7 -18 6 -27 -2 -10 1 -18 7 -18 5 0 8 6 5 13 -2 6
-1 19 4 27 5 11 2 16 -11 16 -12 0 -16 -4 -11 -11z"/>
<path d="M10076 1581 c-3 -4 4 -17 17 -27 22 -19 22 -19 4 2 -9 11 -14 24 -10
27 3 4 4 7 0 7 -3 0 -8 -4 -11 -9z"/>
<path d="M10112 1571 c7 -9 13 -18 15 -20 1 -2 1 5 0 16 0 11 -7 20 -14 20
-10 0 -10 -4 -1 -16z"/>
<path d="M2133 1565 c0 -7 6 -11 14 -8 7 3 13 6 13 8 0 2 -6 5 -13 8 -8 3 -14
-1 -14 -8z"/>
<path d="M1853 1553 c0 -9 4 -10 14 -2 7 6 13 12 13 14 0 1 -6 2 -13 2 -8 0
-14 -6 -14 -14z"/>
<path d="M1973 1555 c0 -7 6 -11 14 -8 7 3 13 6 13 8 0 2 -6 5 -13 8 -8 3 -14
-1 -14 -8z"/>
<path d="M10050 1561 c0 -6 4 -13 10 -16 6 -3 7 1 4 9 -7 18 -14 21 -14 7z"/>
<path d="M1795 1540 c-3 -5 -1 -10 4 -10 6 0 11 5 11 10 0 6 -2 10 -4 10 -3 0
-8 -4 -11 -10z"/>
<path d="M1880 1535 c-7 -9 -11 -17 -9 -20 3 -2 10 5 17 15 14 24 10 26 -8 5z"/>
<path d="M10170 1539 c0 -5 5 -7 10 -4 6 3 10 8 10 11 0 2 -4 4 -10 4 -5 0
-10 -5 -10 -11z"/>
<path d="M1935 1530 c-4 -6 -10 -8 -15 -5 -4 3 -14 -3 -21 -13 -12 -15 -12
-16 2 -5 9 7 18 11 21 8 3 -3 11 1 18 10 7 8 10 15 7 15 -3 0 -9 -5 -12 -10z"/>
<path d="M2195 1529 c4 -5 1 -18 -7 -27 -12 -15 -11 -16 4 -4 9 8 22 11 27 7
6 -3 8 0 5 9 -3 8 -12 17 -20 20 -9 3 -12 1 -9 -5z"/>
<path d="M1970 1521 c0 -6 4 -13 10 -16 6 -3 7 1 4 9 -7 18 -14 21 -14 7z"/>
<path d="M2110 1526 c0 -2 7 -7 16 -10 8 -3 12 -2 9 4 -6 10 -25 14 -25 6z"/>
<path d="M1946 1503 c-6 -14 -5 -15 5 -6 7 7 10 15 7 18 -3 3 -9 -2 -12 -12z"/>
<path d="M2030 1516 c0 -2 8 -10 18 -17 15 -13 16 -12 3 4 -13 16 -21 21 -21
13z"/>
<path d="M1770 1499 c0 -5 5 -7 10 -4 6 3 10 8 10 11 0 2 -4 4 -10 4 -5 0 -10
-5 -10 -11z"/>
<path d="M2080 1500 c-9 -6 -10 -10 -3 -10 6 0 15 5 18 10 8 12 4 12 -15 0z"/>
<path d="M10002 1498 c-15 -15 -43 -19 -57 -8 -8 6 -12 5 -12 -3 0 -9 14 -13
38 -13 21 0 36 2 34 5 -3 2 0 10 6 18 14 16 7 17 -9 1z"/>
<path d="M10033 1487 c-1 -11 -1 -18 0 -16 2 2 8 11 15 20 9 12 9 16 -1 16 -7
0 -14 -9 -14 -20z"/>
<path d="M10073 1495 c0 -8 4 -12 9 -9 5 3 6 10 3 15 -9 13 -12 11 -12 -6z"/>
<path d="M9895 1490 c-4 -6 -10 -8 -14 -6 -4 3 -8 -1 -8 -9 0 -11 4 -12 13 -4
8 7 14 6 17 -3 3 -7 4 -3 4 10 -1 25 -3 26 -12 12z"/>
<path d="M1960 1485 c0 -2 6 -8 13 -14 10 -8 14 -7 14 2 0 8 -6 14 -14 14 -7
0 -13 -1 -13 -2z"/>
<path d="M2013 1473 c0 -9 4 -10 14 -2 7 6 13 12 13 14 0 1 -6 2 -13 2 -8 0
-14 -6 -14 -14z"/>
<path d="M2239 1483 c0 -5 -2 -16 -4 -26 -2 -11 -1 -16 3 -13 8 8 14 46 7 46
-3 0 -5 -3 -6 -7z"/>
<path d="M2286 1482 c-3 -5 1 -9 9 -9 8 0 15 4 15 9 0 4 -4 8 -9 8 -6 0 -12
-4 -15 -8z"/>
<path d="M1813 1465 c0 -8 4 -12 9 -9 5 3 6 10 3 15 -9 13 -12 11 -12 -6z"/>
<path d="M2149 1463 c-13 -16 -12 -17 4 -4 9 7 17 15 17 17 0 8 -8 3 -21 -13z"/>
<path d="M9815 1470 c-3 -6 1 -7 9 -4 18 7 21 14 7 14 -6 0 -13 -4 -16 -10z"/>
<path d="M2043 1458 c-11 -19 -13 -39 -1 -32 5 3 7 9 4 12 -3 3 -1 11 5 19 6
7 9 13 6 13 -3 0 -9 -6 -14 -12z"/>
<path d="M9754 1452 c11 -12 21 -20 24 -17 3 3 12 -1 21 -8 14 -11 14 -10 2 6
-8 9 -16 15 -19 12 -3 -3 -15 3 -26 12 -21 18 -21 18 -2 -5z"/>
<path d="M9839 1453 c-13 -16 -12 -17 4 -4 16 13 21 21 13 21 -2 0 -10 -8 -17
-17z"/>
<path d="M10115 1459 c-3 -4 2 -6 10 -5 21 3 28 13 10 13 -9 0 -18 -4 -20 -8z"/>
<path d="M2095 1450 c-4 -6 -10 -8 -15 -5 -5 3 -11 1 -14 -4 -8 -13 22 -7 36
7 7 7 9 12 6 12 -4 0 -10 -5 -13 -10z"/>
<path d="M2164 1438 c-12 -14 -13 -18 -3 -10 9 6 18 10 21 7 2 -3 5 2 5 10 0
19 0 19 -23 -7z"/>
<path d="M2299 1458 c-5 -18 -6 -38 -1 -34 7 8 12 36 6 36 -2 0 -4 -1 -5 -2z"/>
<path d="M9655 1450 c-4 -6 -11 -8 -16 -5 -5 4 -9 1 -9 -4 0 -16 16 -13 30 4
7 8 10 15 7 15 -3 0 -9 -5 -12 -10z"/>
<path d="M9939 1448 c15 -21 31 -23 31 -6 0 6 -3 8 -7 5 -3 -4 -13 -1 -22 6
-14 11 -14 10 -2 -5z"/>
<path d="M2450 1440 c0 -5 5 -10 11 -10 5 0 7 5 4 10 -3 6 -8 10 -11 10 -2 0
-4 -4 -4 -10z"/>
<path d="M3070 1440 c0 -5 5 -10 11 -10 5 0 7 5 4 10 -3 6 -8 10 -11 10 -2 0
-4 -4 -4 -10z"/>
<path d="M3899 1433 c-13 -16 -12 -17 4 -4 16 13 21 21 13 21 -2 0 -10 -8 -17
-17z"/>
<path d="M4139 1433 c-12 -16 -12 -17 2 -6 9 7 20 9 24 5 5 -4 5 -1 1 6 -9 16
-11 15 -27 -5z"/>
<path d="M4370 1440 c0 -5 5 -10 11 -10 5 0 7 5 4 10 -3 6 -8 10 -11 10 -2 0
-4 -4 -4 -10z"/>
<path d="M4990 1440 c0 -5 5 -10 11 -10 5 0 7 5 4 10 -3 6 -8 10 -11 10 -2 0
-4 -4 -4 -10z"/>
<path d="M5819 1433 c-13 -16 -12 -17 4 -4 16 13 21 21 13 21 -2 0 -10 -8 -17
-17z"/>
<path d="M6059 1433 c-12 -16 -12 -17 2 -6 9 7 20 9 24 5 5 -4 5 -1 1 6 -9 16
-11 15 -27 -5z"/>
<path d="M6290 1440 c0 -5 5 -10 11 -10 5 0 7 5 4 10 -3 6 -8 10 -11 10 -2 0
-4 -4 -4 -10z"/>
<path d="M6910 1440 c0 -5 5 -10 11 -10 5 0 7 5 4 10 -3 6 -8 10 -11 10 -2 0
-4 -4 -4 -10z"/>
<path d="M7739 1433 c-13 -16 -12 -17 4 -4 9 7 17 15 17 17 0 8 -8 3 -21 -13z"/>
<path d="M7979 1433 c-12 -16 -12 -17 2 -6 9 7 20 9 24 5 5 -4 5 -1 1 6 -9 16
-11 15 -27 -5z"/>
<path d="M8210 1440 c0 -5 5 -10 11 -10 5 0 7 5 4 10 -3 6 -8 10 -11 10 -2 0
-4 -4 -4 -10z"/>
<path d="M8830 1440 c0 -5 5 -10 11 -10 5 0 7 5 4 10 -3 6 -8 10 -11 10 -2 0
-4 -4 -4 -10z"/>
<path d="M9719 1433 c-12 -16 -12 -17 2 -6 9 7 20 9 24 5 5 -4 5 -1 1 6 -9 16
-11 15 -27 -5z"/>
<path d="M9893 1435 c0 -8 4 -12 9 -9 5 3 6 10 3 15 -9 13 -12 11 -12 -6z"/>
<path d="M2113 1427 c0 -8 6 -14 14 -14 9 0 10 4 2 14 -6 7 -12 13 -14 13 -1
0 -2 -6 -2 -13z"/>
<path d="M3029 1423 c-13 -16 -12 -17 4 -4 16 13 21 21 13 21 -2 0 -10 -8 -17
-17z"/>
<path d="M4949 1423 c-13 -16 -12 -17 4 -4 16 13 21 21 13 21 -2 0 -10 -8 -17
-17z"/>
<path d="M6869 1423 c-13 -16 -12 -17 4 -4 16 13 21 21 13 21 -2 0 -10 -8 -17
-17z"/>
<path d="M8789 1423 c-13 -16 -12 -17 4 -4 16 13 21 21 13 21 -2 0 -10 -8 -17
-17z"/>
<path d="M9670 1436 c0 -2 8 -10 18 -17 15 -13 16 -12 3 4 -13 16 -21 21 -21
13z"/>
<path d="M2681 1416 c-9 -11 -9 -16 1 -22 7 -4 10 -4 6 1 -4 4 -3 14 3 22 6 7
9 13 6 13 -2 0 -10 -6 -16 -14z"/>
<path d="M3110 1422 c0 -5 7 -9 15 -9 8 0 12 4 9 9 -3 4 -9 8 -15 8 -5 0 -9
-4 -9 -8z"/>
<path d="M3641 1416 c-9 -11 -9 -16 1 -22 7 -4 10 -4 6 1 -4 4 -3 14 3 22 6 7
9 13 6 13 -2 0 -10 -6 -16 -14z"/>
<path d="M4230 1422 c0 -5 7 -9 15 -9 8 0 12 4 9 9 -3 4 -9 8 -15 8 -5 0 -9
-4 -9 -8z"/>
<path d="M4601 1416 c-9 -11 -9 -16 1 -22 7 -4 10 -4 6 1 -4 4 -3 14 3 22 6 7
9 13 6 13 -2 0 -10 -6 -16 -14z"/>
<path d="M5030 1422 c0 -5 7 -9 15 -9 8 0 12 4 9 9 -3 4 -9 8 -15 8 -5 0 -9
-4 -9 -8z"/>
<path d="M5561 1416 c-9 -11 -9 -16 1 -22 7 -4 10 -4 6 1 -4 4 -3 14 3 22 6 7
9 13 6 13 -2 0 -10 -6 -16 -14z"/>
<path d="M6150 1422 c0 -5 7 -9 15 -9 8 0 12 4 9 9 -3 4 -9 8 -15 8 -5 0 -9
-4 -9 -8z"/>
<path d="M6521 1416 c-9 -11 -9 -16 1 -22 7 -4 10 -4 6 1 -4 4 -3 14 3 22 6 7
9 13 6 13 -2 0 -10 -6 -16 -14z"/>
<path d="M6950 1422 c0 -5 7 -9 15 -9 8 0 12 4 9 9 -3 4 -9 8 -15 8 -5 0 -9
-4 -9 -8z"/>
<path d="M7481 1416 c-9 -11 -9 -16 1 -22 7 -4 10 -4 6 1 -4 4 -3 14 3 22 6 7
9 13 6 13 -2 0 -10 -6 -16 -14z"/>
<path d="M8070 1422 c0 -5 7 -9 15 -9 8 0 12 4 9 9 -3 4 -9 8 -15 8 -5 0 -9
-4 -9 -8z"/>
<path d="M8441 1416 c-9 -11 -9 -16 1 -22 7 -4 10 -4 6 1 -4 4 -3 14 3 22 6 7
9 13 6 13 -2 0 -10 -6 -16 -14z"/>
<path d="M8870 1422 c0 -5 7 -9 15 -9 8 0 12 4 9 9 -3 4 -9 8 -15 8 -5 0 -9
-4 -9 -8z"/>
<path d="M9401 1416 c-9 -11 -9 -16 1 -22 7 -4 10 -4 6 1 -4 4 -3 14 3 22 6 7
9 13 6 13 -2 0 -10 -6 -16 -14z"/>
<path d="M9826 1422 c-3 -5 1 -9 9 -9 8 0 15 4 15 9 0 4 -4 8 -9 8 -6 0 -12
-4 -15 -8z"/>
<path d="M1930 1400 c0 -5 5 -10 11 -10 5 0 7 5 4 10 -3 6 -8 10 -11 10 -2 0
-4 -4 -4 -10z"/>
<path d="M2315 1399 c-3 -4 2 -6 10 -5 21 3 28 13 10 13 -9 0 -18 -4 -20 -8z"/>
<path d="M2454 1402 c4 -3 14 -7 22 -8 9 -1 13 0 10 4 -4 3 -14 7 -22 8 -9 1
-13 0 -10 -4z"/>
<path d="M3254 1402 c4 -3 14 -7 22 -8 9 -1 13 0 10 4 -4 3 -14 7 -22 8 -9 1
-13 0 -10 -4z"/>
<path d="M3355 1399 c-3 -4 2 -6 10 -5 21 3 28 13 10 13 -9 0 -18 -4 -20 -8z"/>
<path d="M3506 1402 c-3 -5 1 -9 9 -9 8 0 12 4 9 9 -3 4 -7 8 -9 8 -2 0 -6 -4
-9 -8z"/>
<path d="M3915 1399 c-3 -4 2 -6 10 -5 21 3 28 13 10 13 -9 0 -18 -4 -20 -8z"/>
<path d="M4054 1402 c4 -3 14 -7 22 -8 9 -1 13 0 10 4 -4 3 -14 7 -22 8 -9 1
-13 0 -10 -4z"/>
<path d="M4374 1402 c4 -3 14 -7 22 -8 9 -1 13 0 10 4 -4 3 -14 7 -22 8 -9 1
-13 0 -10 -4z"/>
<path d="M5174 1402 c4 -3 14 -7 22 -8 9 -1 13 0 10 4 -4 3 -14 7 -22 8 -9 1
-13 0 -10 -4z"/>
<path d="M5275 1399 c-3 -4 2 -6 10 -5 21 3 28 13 10 13 -9 0 -18 -4 -20 -8z"/>
<path d="M5426 1402 c-3 -5 1 -9 9 -9 8 0 12 4 9 9 -3 4 -7 8 -9 8 -2 0 -6 -4
-9 -8z"/>
<path d="M5835 1399 c-3 -4 2 -6 10 -5 21 3 28 13 10 13 -9 0 -18 -4 -20 -8z"/>
<path d="M5974 1402 c4 -3 14 -7 22 -8 9 -1 13 0 10 4 -4 3 -14 7 -22 8 -9 1
-13 0 -10 -4z"/>
<path d="M6294 1402 c4 -3 14 -7 22 -8 9 -1 13 0 10 4 -4 3 -14 7 -22 8 -9 1
-13 0 -10 -4z"/>
<path d="M7094 1402 c4 -3 14 -7 22 -8 9 -1 13 0 10 4 -4 3 -14 7 -22 8 -9 1
-13 0 -10 -4z"/>
<path d="M7195 1399 c-3 -4 2 -6 10 -5 21 3 28 13 10 13 -9 0 -18 -4 -20 -8z"/>
<path d="M7346 1402 c-3 -5 1 -9 9 -9 8 0 12 4 9 9 -3 4 -7 8 -9 8 -2 0 -6 -4
-9 -8z"/>
<path d="M7755 1399 c-3 -4 2 -6 10 -5 21 3 28 13 10 13 -9 0 -18 -4 -20 -8z"/>
<path d="M7894 1402 c4 -3 14 -7 22 -8 9 -1 13 0 10 4 -4 3 -14 7 -22 8 -9 1
-13 0 -10 -4z"/>
<path d="M8214 1402 c4 -3 14 -7 22 -8 9 -1 13 0 10 4 -4 3 -14 7 -22 8 -9 1
-13 0 -10 -4z"/>
<path d="M9014 1402 c4 -3 14 -7 22 -8 9 -1 13 0 10 4 -4 3 -14 7 -22 8 -9 1
-13 0 -10 -4z"/>
<path d="M9115 1399 c-3 -4 2 -6 10 -5 21 3 28 13 10 13 -9 0 -18 -4 -20 -8z"/>
<path d="M9266 1402 c-3 -5 1 -9 9 -9 8 0 12 4 9 9 -3 4 -7 8 -9 8 -2 0 -6 -4
-9 -8z"/>
<path d="M2050 1379 c0 -5 5 -7 10 -4 6 3 10 8 10 11 0 2 -4 4 -10 4 -5 0 -10
-5 -10 -11z"/>
<path d="M2095 1380 c3 -5 8 -10 11 -10 2 0 4 5 4 10 0 6 -5 10 -11 10 -5 0
-7 -4 -4 -10z"/>
<path d="M2170 1379 c0 -5 5 -7 10 -4 6 3 10 8 10 11 0 2 -4 4 -10 4 -5 0 -10
-5 -10 -11z"/>
<path d="M2210 1379 c0 -5 5 -7 10 -4 6 3 10 8 10 11 0 2 -4 4 -10 4 -5 0 -10
-5 -10 -11z"/>
<path d="M2615 1380 c3 -5 8 -10 11 -10 2 0 4 5 4 10 0 6 -5 10 -11 10 -5 0
-7 -4 -4 -10z"/>
<path d="M2650 1379 c0 -5 5 -7 10 -4 6 3 10 8 10 11 0 2 -4 4 -10 4 -5 0 -10
-5 -10 -11z"/>
<path d="M2730 1379 c0 -5 5 -7 10 -4 6 3 10 8 10 11 0 2 -4 4 -10 4 -5 0 -10
-5 -10 -11z"/>
<path d="M2855 1380 c3 -5 8 -10 11 -10 2 0 4 5 4 10 0 6 -5 10 -11 10 -5 0
-7 -4 -4 -10z"/>
<path d="M3055 1380 c3 -5 8 -10 11 -10 2 0 4 5 4 10 0 6 -5 10 -11 10 -5 0
-7 -4 -4 -10z"/>
<path d="M3095 1380 c3 -5 8 -10 11 -10 2 0 4 5 4 10 0 6 -5 10 -11 10 -5 0
-7 -4 -4 -10z"/>
<path d="M3575 1380 c3 -5 8 -10 11 -10 2 0 4 5 4 10 0 6 -5 10 -11 10 -5 0
-7 -4 -4 -10z"/>
<path d="M3610 1379 c0 -5 5 -7 10 -4 6 3 10 8 10 11 0 2 -4 4 -10 4 -5 0 -10
-5 -10 -11z"/>
<path d="M3690 1379 c0 -5 5 -7 10 -4 6 3 10 8 10 11 0 2 -4 4 -10 4 -5 0 -10
-5 -10 -11z"/>
<path d="M3815 1380 c3 -5 8 -10 11 -10 2 0 4 5 4 10 0 6 -5 10 -11 10 -5 0
-7 -4 -4 -10z"/>
<path d="M4175 1380 c3 -5 8 -10 11 -10 2 0 4 5 4 10 0 6 -5 10 -11 10 -5 0
-7 -4 -4 -10z"/>
<path d="M4215 1380 c3 -5 8 -10 11 -10 2 0 4 5 4 10 0 6 -5 10 -11 10 -5 0
-7 -4 -4 -10z"/>
<path d="M4535 1380 c3 -5 8 -10 11 -10 2 0 4 5 4 10 0 6 -5 10 -11 10 -5 0
-7 -4 -4 -10z"/>
<path d="M4570 1379 c0 -5 5 -7 10 -4 6 3 10 8 10 11 0 2 -4 4 -10 4 -5 0 -10
-5 -10 -11z"/>
<path d="M4650 1379 c0 -5 5 -7 10 -4 6 3 10 8 10 11 0 2 -4 4 -10 4 -5 0 -10
-5 -10 -11z"/>
<path d="M4775 1380 c3 -5 8 -10 11 -10 2 0 4 5 4 10 0 6 -5 10 -11 10 -5 0
-7 -4 -4 -10z"/>
<path d="M4975 1380 c3 -5 8 -10 11 -10 2 0 4 5 4 10 0 6 -5 10 -11 10 -5 0
-7 -4 -4 -10z"/>
<path d="M5015 1380 c3 -5 8 -10 11 -10 2 0 4 5 4 10 0 6 -5 10 -11 10 -5 0
-7 -4 -4 -10z"/>
<path d="M5495 1380 c3 -5 8 -10 11 -10 2 0 4 5 4 10 0 6 -5 10 -11 10 -5 0
-7 -4 -4 -10z"/>
<path d="M5530 1379 c0 -5 5 -7 10 -4 6 3 10 8 10 11 0 2 -4 4 -10 4 -5 0 -10
-5 -10 -11z"/>
<path d="M5610 1379 c0 -5 5 -7 10 -4 6 3 10 8 10 11 0 2 -4 4 -10 4 -5 0 -10
-5 -10 -11z"/>
<path d="M5735 1380 c3 -5 8 -10 11 -10 2 0 4 5 4 10 0 6 -5 10 -11 10 -5 0
-7 -4 -4 -10z"/>
<path d="M6095 1380 c3 -5 8 -10 11 -10 2 0 4 5 4 10 0 6 -5 10 -11 10 -5 0
-7 -4 -4 -10z"/>
<path d="M6135 1380 c3 -5 8 -10 11 -10 2 0 4 5 4 10 0 6 -5 10 -11 10 -5 0
-7 -4 -4 -10z"/>
<path d="M6455 1380 c3 -5 8 -10 11 -10 2 0 4 5 4 10 0 6 -5 10 -11 10 -5 0
-7 -4 -4 -10z"/>
<path d="M6490 1379 c0 -5 5 -7 10 -4 6 3 10 8 10 11 0 2 -4 4 -10 4 -5 0 -10
-5 -10 -11z"/>
<path d="M6570 1379 c0 -5 5 -7 10 -4 6 3 10 8 10 11 0 2 -4 4 -10 4 -5 0 -10
-5 -10 -11z"/>
<path d="M6695 1380 c3 -5 8 -10 11 -10 2 0 4 5 4 10 0 6 -5 10 -11 10 -5 0
-7 -4 -4 -10z"/>
<path d="M6895 1380 c3 -5 8 -10 11 -10 2 0 4 5 4 10 0 6 -5 10 -11 10 -5 0
-7 -4 -4 -10z"/>
<path d="M6935 1380 c3 -5 8 -10 11 -10 2 0 4 5 4 10 0 6 -5 10 -11 10 -5 0
-7 -4 -4 -10z"/>
<path d="M7415 1380 c3 -5 8 -10 11 -10 2 0 4 5 4 10 0 6 -5 10 -11 10 -5 0
-7 -4 -4 -10z"/>
<path d="M7450 1379 c0 -5 5 -7 10 -4 6 3 10 8 10 11 0 2 -4 4 -10 4 -5 0 -10
-5 -10 -11z"/>
<path d="M7530 1379 c0 -5 5 -7 10 -4 6 3 10 8 10 11 0 2 -4 4 -10 4 -5 0 -10
-5 -10 -11z"/>
<path d="M7655 1380 c3 -5 8 -10 11 -10 2 0 4 5 4 10 0 6 -5 10 -11 10 -5 0
-7 -4 -4 -10z"/>
<path d="M8015 1380 c3 -5 8 -10 11 -10 2 0 4 5 4 10 0 6 -5 10 -11 10 -5 0
-7 -4 -4 -10z"/>
<path d="M8055 1380 c3 -5 8 -10 11 -10 2 0 4 5 4 10 0 6 -5 10 -11 10 -5 0
-7 -4 -4 -10z"/>
<path d="M8375 1380 c3 -5 8 -10 11 -10 2 0 4 5 4 10 0 6 -5 10 -11 10 -5 0
-7 -4 -4 -10z"/>
<path d="M8410 1379 c0 -5 5 -7 10 -4 6 3 10 8 10 11 0 2 -4 4 -10 4 -5 0 -10
-5 -10 -11z"/>
<path d="M8490 1379 c0 -5 5 -7 10 -4 6 3 10 8 10 11 0 2 -4 4 -10 4 -5 0 -10
-5 -10 -11z"/>
<path d="M8615 1380 c3 -5 8 -10 11 -10 2 0 4 5 4 10 0 6 -5 10 -11 10 -5 0
-7 -4 -4 -10z"/>
<path d="M8815 1380 c3 -5 8 -10 11 -10 2 0 4 5 4 10 0 6 -5 10 -11 10 -5 0
-7 -4 -4 -10z"/>
<path d="M8855 1380 c3 -5 8 -10 11 -10 2 0 4 5 4 10 0 6 -5 10 -11 10 -5 0
-7 -4 -4 -10z"/>
<path d="M9335 1380 c3 -5 8 -10 11 -10 2 0 4 5 4 10 0 6 -5 10 -11 10 -5 0
-7 -4 -4 -10z"/>
<path d="M9370 1379 c0 -5 5 -7 10 -4 6 3 10 8 10 11 0 2 -4 4 -10 4 -5 0 -10
-5 -10 -11z"/>
<path d="M9450 1379 c0 -5 5 -7 10 -4 6 3 10 8 10 11 0 2 -4 4 -10 4 -5 0 -10
-5 -10 -11z"/>
<path d="M9575 1380 c3 -5 8 -10 11 -10 2 0 4 5 4 10 0 6 -5 10 -11 10 -5 0
-7 -4 -4 -10z"/>
<path d="M9615 1380 c3 -5 8 -10 11 -10 2 0 4 5 4 10 0 6 -5 10 -11 10 -5 0
-7 -4 -4 -10z"/>
<path d="M9655 1380 c3 -5 8 -10 11 -10 2 0 4 5 4 10 0 6 -5 10 -11 10 -5 0
-7 -4 -4 -10z"/>
<path d="M2510 1376 c0 -2 8 -10 18 -17 15 -13 16 -12 3 4 -13 16 -21 21 -21
13z"/>
<path d="M3310 1376 c0 -2 8 -10 18 -17 15 -13 16 -12 3 4 -13 16 -21 21 -21
13z"/>
<path d="M4110 1376 c0 -2 8 -10 18 -17 15 -13 16 -12 3 4 -13 16 -21 21 -21
13z"/>
<path d="M4430 1376 c0 -2 8 -10 18 -17 15 -13 16 -12 3 4 -13 16 -21 21 -21
13z"/>
<path d="M5230 1376 c0 -2 8 -10 18 -17 15 -13 16 -12 3 4 -13 16 -21 21 -21
13z"/>
<path d="M6030 1376 c0 -2 8 -10 18 -17 15 -13 16 -12 3 4 -13 16 -21 21 -21
13z"/>
<path d="M6350 1376 c0 -2 8 -10 18 -17 15 -13 16 -12 3 4 -13 16 -21 21 -21
13z"/>
<path d="M7150 1376 c0 -2 8 -10 18 -17 15 -13 16 -12 3 4 -13 16 -21 21 -21
13z"/>
<path d="M7950 1376 c0 -2 8 -10 18 -17 15 -13 16 -12 3 4 -13 16 -21 21 -21
13z"/>
<path d="M8270 1376 c0 -2 8 -10 18 -17 15 -13 16 -12 3 4 -13 16 -21 21 -21
13z"/>
<path d="M9070 1376 c0 -2 8 -10 18 -17 15 -13 16 -12 3 4 -13 16 -21 21 -21
13z"/>
<path d="M9945 1360 c-3 -6 1 -7 9 -4 18 7 21 14 7 14 -6 0 -13 -4 -16 -10z"/>
<path d="M2830 1326 c0 -2 7 -7 16 -10 8 -3 12 -2 9 4 -6 10 -25 14 -25 6z"/>
<path d="M3145 1320 c-3 -6 1 -7 9 -4 18 7 21 14 7 14 -6 0 -13 -4 -16 -10z"/>
<path d="M3790 1326 c0 -2 7 -7 16 -10 8 -3 12 -2 9 4 -6 10 -25 14 -25 6z"/>
<path d="M4265 1320 c-3 -6 1 -7 9 -4 18 7 21 14 7 14 -6 0 -13 -4 -16 -10z"/>
<path d="M4750 1326 c0 -2 7 -7 16 -10 8 -3 12 -2 9 4 -6 10 -25 14 -25 6z"/>
<path d="M5065 1320 c-3 -6 1 -7 9 -4 18 7 21 14 7 14 -6 0 -13 -4 -16 -10z"/>
<path d="M5710 1326 c0 -2 7 -7 16 -10 8 -3 12 -2 9 4 -6 10 -25 14 -25 6z"/>
<path d="M6185 1320 c-3 -6 1 -7 9 -4 18 7 21 14 7 14 -6 0 -13 -4 -16 -10z"/>
<path d="M6670 1326 c0 -2 7 -7 16 -10 8 -3 12 -2 9 4 -6 10 -25 14 -25 6z"/>
<path d="M6985 1320 c-3 -6 1 -7 9 -4 18 7 21 14 7 14 -6 0 -13 -4 -16 -10z"/>
<path d="M7630 1326 c0 -2 7 -7 16 -10 8 -3 12 -2 9 4 -6 10 -25 14 -25 6z"/>
<path d="M8105 1320 c-3 -6 1 -7 9 -4 18 7 21 14 7 14 -6 0 -13 -4 -16 -10z"/>
<path d="M8590 1326 c0 -2 7 -7 16 -10 8 -3 12 -2 9 4 -6 10 -25 14 -25 6z"/>
<path d="M8905 1320 c-3 -6 1 -7 9 -4 18 7 21 14 7 14 -6 0 -13 -4 -16 -10z"/>
<path d="M9550 1326 c0 -2 7 -7 16 -10 8 -3 12 -2 9 4 -6 10 -25 14 -25 6z"/>
<path d="M9796 1318 c3 -5 10 -6 15 -3 13 9 11 12 -6 12 -8 0 -12 -4 -9 -9z"/>
</g>
</svg>
